<svg aria-hidden="true" style="position:absolute;width:0;height:0;overflow:hidden" xmlns="http://www.w3.org/2000/svg">
<defs>

<symbol id="icon-menu_40px" viewBox="0 0 40 40">
<path fill-rule="evenodd" clip-rule="evenodd" d="M8 14.6667V12H32V14.6667H8ZM8 21.3333H32V18.6667H8V21.3333ZM8 28H32V25.3333H8V28Z" fill="black"/>
</symbol>

<symbol id="icon-email-white" viewBox="0 0 14 10">
<path d="M12.6875 0H1.31251C0.588747 0 0 0.560711 0 1.25001V8.74999C0 9.43929 0.588747 10 1.31251 10H12.6875C13.4113 10 14 9.43929 14 8.74999V1.25001C14 0.560711 13.4113 0 12.6875 0ZM12.6875 0.833329C12.7469 0.833329 12.8035 0.845074 12.8552 0.865586L7 5.69865L1.14479 0.865586C1.19649 0.845102 1.25304 0.833329 1.31248 0.833329H12.6875ZM12.6875 9.16664H1.31251C1.07112 9.16664 0.874996 8.97989 0.874996 8.74997V1.74601L6.71331 6.56493C6.79578 6.63287 6.89789 6.66666 7 6.66666C7.10211 6.66666 7.20422 6.6329 7.28669 6.56493L13.125 1.74601V8.74999C13.125 8.97989 12.9289 9.16664 12.6875 9.16664Z" fill="#757575"/>
</symbol>

<symbol id="icon-smartphone" viewBox="0 0 10 14">
<path d="M8.5 0H1.5C0.672848 0 0 0.588742 0 1.3125V12.6875C0 13.4113 0.672848 14 1.5 14H8.5C9.32715 14 10 13.4113 10 12.6875V1.3125C10 0.588742 9.32715 0 8.5 0ZM1.5 0.875H8.5C8.77588 0.875 9 1.07111 9 1.3125V10.5H1V1.3125C1 1.07111 1.22412 0.875 1.5 0.875ZM8.5 13.125H1.5C1.22412 13.125 1 12.9289 1 12.6875V11.375H9V12.6875C9 12.9289 8.77588 13.125 8.5 13.125Z" fill="#757575"/>
</symbol>

</defs>
</svg>